<svg width="75" height="69" viewBox="0 0 75 69" fill="none" xmlns="http://www.w3.org/2000/svg">
<path d="M64.9824 0C70.5051 4.7551e-05 74.9822 4.47736 74.9824 10V58.3311C74.9824 63.8539 70.5052 68.331 64.9824 68.3311H10C4.47715 68.3311 0 63.8539 0 58.3311V10C0.000213163 4.47733 4.47728 0 10 0H64.9824ZM8.05566 53.1846L12.9512 58.4004L25.0527 53.8525L12.4229 40.833L8.05566 53.1846ZM7.68164 8.54102L47.124 56.0664L60.6533 57.3428L66.2344 42.707L16.5098 6.33301L7.68164 8.54102ZM48.3311 9.44824L60.5703 22.0654L62.9385 10.6104L59.4434 7.00781L48.3311 9.44824Z" fill="url(#paint0_linear_1_125)"/>
<defs>
<linearGradient id="paint0_linear_1_125" x1="37.4912" y1="0" x2="37.4912" y2="68.3311" gradientUnits="userSpaceOnUse">
<stop stop-color="#BE1313"/>
<stop offset="1" stop-color="#CC2C04"/>
</linearGradient>
</defs>
</svg>
