<svg width="510" height="510" viewBox="0 0 510 510" fill="none" xmlns="http://www.w3.org/2000/svg">
<path d="M5.57307 5H505V505H5.57307V5Z" fill="white"/>
<path d="M460.63 5C459.369 6.17367 458.164 7.43559 457.025 8.78551L433.589 36.5556H433.406L394.552 82.6967V82.8135L38.2638 505H5V5H460.63ZM504.427 430.703H467.015L446.617 430.42C449.724 426.363 452.598 422.074 455.236 417.554C467.06 397.16 473.043 372.844 473.186 344.606V122.982L485.346 108.572L504.427 86.0328V430.703ZM394.552 344.606C394.409 360.009 391.988 372.987 387.287 383.54C382.728 394.094 376.033 402.08 367.201 407.5C358.369 412.777 347.614 415.415 334.935 415.415C323.254 415.415 312.927 413.133 303.952 408.569C294.978 404.006 287.926 397.445 282.798 388.889C281.227 386.192 279.896 383.332 278.806 380.31L278.577 353.585L394.552 216.16V344.606Z" fill="black"/>
<path d="M507.5 2.5V507.5H2.5V2.5H507.5Z" stroke="#027BED" stroke-width="5"/>
</svg>
